<svg width="145" height="33" viewBox="0 0 145 33" fill="none" xmlns="http://www.w3.org/2000/svg">
<rect x="0.496948" y="0.321899" width="32" height="32" rx="16" fill="black" fill-opacity="0.06"/>
<g clip-path="url(#clip0_42_73)">
<path d="M22.8523 13.063C22.8624 13.2052 22.8624 13.3473 22.8624 13.4894C22.8624 17.8244 19.5629 22.8194 13.5325 22.8194C11.6746 22.8194 9.94873 22.2813 8.49695 21.3473C8.76092 21.3777 9.0147 21.3879 9.28882 21.3879C10.8218 21.3879 12.233 20.8702 13.3599 19.9869C11.9183 19.9564 10.7101 19.0123 10.2939 17.7128C10.4969 17.7432 10.7 17.7635 10.9132 17.7635C11.2076 17.7635 11.502 17.7229 11.7761 17.6519C10.2736 17.3473 9.14667 16.0275 9.14667 14.4336V14.393C9.5832 14.6367 10.0909 14.7889 10.6289 14.8092C9.74564 14.2204 9.16698 13.2153 9.16698 12.0782C9.16698 11.4691 9.32939 10.9107 9.61367 10.4234C11.2279 12.4133 13.6543 13.7127 16.3751 13.8549C16.3243 13.6112 16.2939 13.3575 16.2939 13.1037C16.2939 11.2965 17.7558 9.82446 19.573 9.82446C20.5172 9.82446 21.37 10.2204 21.969 10.86C22.7101 10.7179 23.4207 10.4437 24.0502 10.0681C23.8065 10.8296 23.2888 11.4692 22.6086 11.8752C23.2685 11.8042 23.9081 11.6214 24.4969 11.3676C24.0503 12.0173 23.4919 12.596 22.8523 13.063Z" fill="#2D3748"/>
</g>
<rect x="56.4969" y="0.321899" width="32" height="32" rx="16" fill="black" fill-opacity="0.06"/>
<g clip-path="url(#clip1_42_73)">
<path d="M79.7651 12.6576C79.5907 12.0006 79.0766 11.4832 78.4239 11.3076C77.2409 10.9886 72.4969 10.9886 72.4969 10.9886C72.4969 10.9886 67.753 10.9886 66.57 11.3076C65.9173 11.4833 65.4032 12.0006 65.2287 12.6576C64.9117 13.8483 64.9117 16.3327 64.9117 16.3327C64.9117 16.3327 64.9117 18.8171 65.2287 20.0078C65.4032 20.6648 65.9173 21.1606 66.57 21.3362C67.753 21.6553 72.4969 21.6553 72.4969 21.6553C72.4969 21.6553 77.2408 21.6553 78.4239 21.3362C79.0766 21.1606 79.5907 20.6648 79.7651 20.0078C80.0821 18.8171 80.0821 16.3327 80.0821 16.3327C80.0821 16.3327 80.0821 13.8483 79.7651 12.6576ZM70.9454 18.5883V14.0771L74.9104 16.3328L70.9454 18.5883Z" fill="#2D3748"/>
</g>
<rect x="112.497" y="0.321899" width="32" height="32" rx="16" fill="black" fill-opacity="0.06"/>
<g clip-path="url(#clip2_42_73)">
<path d="M128.5 12.7281C126.513 12.7281 124.909 14.3312 124.909 16.3187C124.909 18.3062 126.513 19.9094 128.5 19.9094C130.488 19.9094 132.091 18.3062 132.091 16.3187C132.091 14.3312 130.488 12.7281 128.5 12.7281ZM128.5 18.6531C127.216 18.6531 126.166 17.6062 126.166 16.3187C126.166 15.0312 127.213 13.9844 128.5 13.9844C129.788 13.9844 130.834 15.0312 130.834 16.3187C130.834 17.6062 129.784 18.6531 128.5 18.6531ZM133.075 12.5812C133.075 13.0469 132.7 13.4188 132.238 13.4188C131.772 13.4188 131.4 13.0437 131.4 12.5812C131.4 12.1187 131.775 11.7437 132.238 11.7437C132.7 11.7437 133.075 12.1187 133.075 12.5812ZM135.453 13.4313C135.4 12.3094 135.144 11.3156 134.322 10.4969C133.503 9.67812 132.509 9.42187 131.388 9.36562C130.231 9.3 126.766 9.3 125.609 9.36562C124.491 9.41875 123.497 9.675 122.675 10.4937C121.853 11.3125 121.6 12.3062 121.544 13.4281C121.478 14.5844 121.478 18.05 121.544 19.2062C121.597 20.3281 121.853 21.3219 122.675 22.1406C123.497 22.9594 124.488 23.2156 125.609 23.2719C126.766 23.3375 130.231 23.3375 131.388 23.2719C132.509 23.2187 133.503 22.9625 134.322 22.1406C135.141 21.3219 135.397 20.3281 135.453 19.2062C135.519 18.05 135.519 14.5875 135.453 13.4313ZM133.959 20.4469C133.716 21.0594 133.244 21.5312 132.628 21.7781C131.706 22.1437 129.519 22.0594 128.5 22.0594C127.481 22.0594 125.291 22.1406 124.372 21.7781C123.759 21.5344 123.288 21.0625 123.041 20.4469C122.675 19.525 122.759 17.3375 122.759 16.3187C122.759 15.3 122.678 13.1094 123.041 12.1906C123.284 11.5781 123.756 11.1062 124.372 10.8594C125.294 10.4937 127.481 10.5781 128.5 10.5781C129.519 10.5781 131.709 10.4969 132.628 10.8594C133.241 11.1031 133.713 11.575 133.959 12.1906C134.325 13.1125 134.241 15.3 134.241 16.3187C134.241 17.3375 134.325 19.5281 133.959 20.4469Z" fill="#2D3748"/>
</g>
<defs>
<clipPath id="clip0_42_73">
<rect width="16" height="16" fill="white" transform="translate(8.49695 8.3219)"/>
</clipPath>
<clipPath id="clip1_42_73">
<rect width="16" height="16" fill="white" transform="translate(64.4969 8.3219)"/>
</clipPath>
<clipPath id="clip2_42_73">
<rect width="16" height="16" fill="white" transform="translate(120.497 8.3219)"/>
</clipPath>
</defs>
</svg>
