<svg width="18" height="18" viewBox="0 0 18 18" fill="none" xmlns="http://www.w3.org/2000/svg">
<path d="M9.28125 15.9468C7.11808 15.9468 5.0435 15.135 3.51391 13.69C1.98432 12.245 1.125 10.2851 1.125 8.24152C1.125 5.11954 3.02344 2.32039 5.96285 1.11179C6.06645 1.06914 6.18124 1.05695 6.29227 1.07682C6.4033 1.09669 6.50543 1.14769 6.58533 1.22318C6.66524 1.29867 6.71923 1.39515 6.74026 1.50004C6.76129 1.60493 6.74839 1.71338 6.70324 1.81125C6.36574 2.54325 6.1875 3.48084 6.1875 4.52172C6.1875 8.1844 9.34172 11.1642 13.2188 11.1642C14.3205 11.1642 15.313 10.9958 16.0879 10.677C16.1914 10.6343 16.3062 10.6222 16.4173 10.642C16.5283 10.6619 16.6304 10.7129 16.7103 10.7884C16.7902 10.8639 16.8442 10.9604 16.8653 11.0652C16.8863 11.1701 16.8734 11.2786 16.8282 11.3765C15.5489 14.1533 12.5859 15.9468 9.28125 15.9468Z" fill="black"/>
</svg>
