<svg width="503" height="437" viewBox="0 0 503 437" fill="none" xmlns="http://www.w3.org/2000/svg">
<rect x="71.7306" y="130.24" width="370.165" height="306.26" rx="50" fill="white" fill-opacity="0.3"/>
<path d="M32.7658 147.088C32.7658 119.473 55.1516 97.0877 82.7658 97.0877H415.806C443.421 97.0877 465.806 119.473 465.806 147.088V355.716C465.806 383.33 443.421 405.716 415.806 405.716H82.7659C55.1517 405.716 32.7658 383.33 32.7658 355.716V147.088Z" fill="white" fill-opacity="0.5"/>
<path d="M0 50.0001C0 22.3858 22.3858 0 50 0H453C480.614 0 503 22.3858 503 50V313.092C503 340.706 480.614 363.092 453 363.092H50C22.3858 363.092 0 340.706 0 313.092V50.0001Z" fill="white" fill-opacity="0.8"/>
<g clip-path="url(#clip0_3_76)">
<path d="M321.254 237.513C321.909 237.541 322.465 237.075 322.495 236.473C322.511 236.151 322.372 235.839 322.115 235.621L322.033 235.323L322.066 235.252C322.752 233.76 324.624 233.063 326.245 233.694C327.016 233.994 327.627 234.561 327.948 235.272C328.91 237.403 330.134 239.537 330.436 241.791C330.569 242.787 330.513 243.796 330.27 244.775C332.53 240.241 333.703 235.314 333.711 230.327C333.711 229.076 333.636 227.825 333.484 226.582C333.359 225.562 333.186 224.55 332.964 223.545C331.753 218.092 329.153 212.981 325.377 208.631C323.549 207.714 322.072 206.304 321.142 204.59C320.806 203.974 320.568 203.317 320.436 202.638C320.642 202.663 320.852 202.679 321.058 202.691C321.122 202.694 321.19 202.697 321.254 202.7L321.278 202.701C321.927 202.728 322.477 202.266 322.506 201.669C322.519 201.404 322.426 201.144 322.244 200.939C322.155 200.838 322.066 200.737 321.977 200.637C321.842 200.481 321.703 200.329 321.568 200.173C321.553 200.159 321.538 200.143 321.524 200.127C321.369 199.95 321.213 199.776 321.058 199.598C321.342 199.193 321.723 198.854 322.173 198.607C323.731 197.768 325.88 198.349 327.006 199.645C328.073 201.014 328.421 202.75 327.955 204.379C327.57 205.757 326.932 207.065 326.07 208.246C326.154 208.345 326.242 208.442 326.327 208.541C327.871 210.368 329.217 212.329 330.345 214.397C330.071 212.08 330.399 209.737 331.301 207.559C332.216 205.529 333.93 203.82 335.44 202.065C336.555 200.749 338.62 200.513 340.051 201.539C340.738 202.031 341.184 202.754 341.292 203.549L341.301 203.627C341.077 203.743 340.857 203.867 340.643 203.997C339.903 204.452 339.704 205.372 340.198 206.052C340.449 206.397 340.846 206.63 341.292 206.693L341.325 206.698C341.245 207.441 341.104 208.178 340.902 208.902C339.723 212.986 336.746 216.433 332.687 218.413C332.555 218.475 332.427 218.537 332.295 218.596C333.428 221.552 334.14 224.63 334.41 227.754C334.563 229.597 334.554 231.448 334.383 233.289L334.393 233.224C334.826 231.176 336.014 229.329 337.756 227.993C340.344 226.038 344 225.318 346.791 223.746C347.65 223.239 348.794 223.468 349.346 224.258C349.582 224.597 349.68 225.001 349.623 225.4L349.611 225.469C349.195 225.625 348.79 225.804 348.398 226.007C348.174 226.123 347.954 226.247 347.739 226.377C347 226.832 346.801 227.752 347.295 228.432C347.546 228.777 347.943 229.01 348.389 229.073L348.422 229.078C348.445 229.081 348.466 229.084 348.489 229.087C347.778 230.649 346.78 232.086 345.539 233.336C342.44 236.395 338.107 238.143 333.562 238.17H333.559C332.948 240.61 332.064 242.985 330.919 245.257H321.49C321.457 245.16 321.426 245.061 321.396 244.964C322.269 245.015 323.145 244.967 324.005 244.821C323.305 244.032 322.606 243.236 321.906 242.447C321.891 242.432 321.876 242.416 321.862 242.4C321.507 241.996 321.149 241.595 320.794 241.191C320.775 239.952 320.93 238.716 321.254 237.513Z" fill="#F2F2F2"/>
<path d="M292.73 157.954C292.73 162.728 295.327 167.585 300.517 167.585C305.707 167.585 312.868 164.128 311.257 156.719C310.239 152.038 307.318 149.31 302.128 149.31C296.938 149.31 292.73 153.18 292.73 157.954Z" fill="#2F2E41"/>
<path d="M314.503 226.159C313.434 225.069 313.529 223.388 314.714 222.405C314.84 222.301 314.976 222.206 315.121 222.124L312.849 212.914L317.843 214.642L319.235 223.123C319.991 224.424 319.457 226.043 318.042 226.739C316.858 227.321 315.395 227.081 314.503 226.159Z" fill="#A0616A"/>
<path d="M303.902 193.514L307.388 193.841C307.388 193.841 306.476 198.59 307.902 199.66C309.327 200.729 308.753 200.724 308.745 201.517C308.833 202.668 309.448 203.73 310.438 204.439C311.579 205.242 313.952 219.542 313.952 219.542L319.124 219.588C318.97 218.358 318.983 217.115 319.163 215.888C319.469 214.041 321.019 209.388 320.453 208.59C319.887 207.792 320.185 206.325 320.201 204.739C320.218 203.153 317.752 204.905 317.779 202.263C317.807 199.62 314.644 183.037 314.956 180.661C315.268 178.286 312.129 176.144 312.129 176.144L309.256 176.118L303.902 193.514Z" fill="#E6E6E6"/>
<path d="M266.899 171.212C266.57 172.57 267.5 173.915 268.976 174.217C269.134 174.249 269.294 174.269 269.455 174.275L272.251 182.846L275.493 179.278L272.341 171.686C272.305 170.288 271.044 169.182 269.524 169.215C268.252 169.243 267.167 170.069 266.899 171.212Z" fill="#A0616A"/>
<path d="M296.42 174.004C296.42 174.004 289.66 171.672 285.995 184.439L281.13 189.073L277.043 182.28L277.583 180.669L274.424 174.082L269.008 176.941L270.342 181.463L270.116 183.699L271.411 185.089L273.529 192.275L274.854 194.623C274.854 194.623 276.526 197.629 279.443 198.124C280.221 198.258 281.017 198.279 281.802 198.186C283.668 197.917 285.398 197.123 286.752 195.912C290.36 192.954 293.771 189.799 296.969 186.466L296.42 174.004Z" fill="#E6E6E6"/>
<path d="M305.487 195.381L305.965 197.477L306.372 205.208L290.037 203.173L288.783 194.221L290.516 191.601L305.487 195.381Z" fill="#A0616A"/>
<path d="M300.188 167.461C304.458 167.461 307.919 164.277 307.919 160.35C307.919 156.423 304.458 153.239 300.188 153.239C295.919 153.239 292.458 156.423 292.458 160.35C292.458 164.277 295.919 167.461 300.188 167.461Z" fill="#A0616A"/>
<path d="M313.142 176.977C311.866 174.209 309.226 172.171 306.041 171.495L306.012 171.49L304.481 169.595L298.27 170.168L297.135 172.309L294.19 173.92H294.184L294.179 173.926L292.636 174.772L287.52 180.28L287.514 180.286C285.996 181.218 284.965 182.687 284.668 184.344C284.591 184.817 284.565 185.295 284.592 185.773C284.761 188.701 286.752 191.308 287.025 191.656L287.695 195.12L287.828 195.832L289.033 195.993L306.006 198.225L306.477 198.289L306.617 198.305L307.106 197.144V197.133L311.838 185.746L313.962 180.666C313.968 179.397 313.689 178.142 313.142 176.977Z" fill="#E6E6E6"/>
<path d="M308.279 162.214C308.209 162.204 308.139 162.19 308.069 162.18C306.863 161.983 305.657 161.79 304.455 161.59L304.344 159.083L302.888 161.329C299.565 162.343 296.456 161.77 293.532 160.505C292.567 160.083 291.631 159.609 290.729 159.083C290.1 155.553 291.687 152.77 295.763 152.415C295.889 152.404 295.98 152.306 296.091 152.255L296.095 152.252C296.283 152.171 296.475 152.093 296.666 152.021C299.731 150.92 303.211 151.541 305.606 153.616C308.025 155.879 309.031 159.116 308.279 162.214Z" fill="#2F2E41"/>
<path d="M315.895 219.559C315.553 217.458 314.991 215.393 314.218 213.391V213.386C313.571 211.694 312.765 210.056 311.809 208.493C311.806 208.493 311.803 208.491 311.803 208.488C310.426 206.131 308.63 204.003 306.489 202.192L306.262 201.972H306.204L289.813 201.603H289.644L289.458 201.598C289.458 201.598 289.388 201.785 289.254 202.138C289.249 202.161 289.242 202.182 289.231 202.203C289.185 202.342 289.126 202.502 289.057 202.679C289.016 202.797 288.969 202.92 288.923 203.054C288.87 203.198 288.812 203.348 288.754 203.509C288.3 204.756 287.636 206.566 286.822 208.809C286.699 209.151 286.571 209.505 286.437 209.874C283.329 218.477 278.329 232.535 273.964 245.86H289.447C290.948 241.866 292.543 236.17 292.543 236.17C293.166 235.49 293.131 233.643 293.131 233.643L297.997 228.943L301.501 245.86H316.203L316.314 227.032V226.871C316.429 224.427 316.288 221.978 315.895 219.559Z" fill="#CCCCCC"/>
<path d="M305.317 152.075V152.081C305.316 152.454 305.368 152.824 305.471 153.184C305.487 153.247 305.507 153.314 305.53 153.377V153.38C305.974 154.683 307.056 155.719 308.454 156.18C308.555 156.216 308.659 156.246 308.764 156.273C308.984 156.332 309.209 156.374 309.437 156.4C309.642 156.426 309.848 156.439 310.055 156.439C310.216 156.439 310.377 156.432 310.538 156.418C310.914 156.383 311.284 156.305 311.639 156.186C311.695 156.171 311.749 156.153 311.802 156.132C311.829 156.124 311.855 156.113 311.881 156.102C314.297 155.172 315.435 152.617 314.424 150.395C314.394 150.328 314.362 150.262 314.328 150.197L314.325 150.194C314.092 149.747 313.777 149.34 313.394 148.992C312.538 148.208 312.16 146.242 310.86 146.242C310.798 146.241 310.736 146.243 310.674 146.248C309.801 146.276 308.189 148.007 307.503 148.415C306.993 148.711 306.552 149.096 306.202 149.548C305.838 150.013 305.578 150.54 305.438 151.099C305.358 151.419 305.317 151.747 305.317 152.075Z" fill="#2F2E41"/>
<path d="M311.105 150.558C311.841 151.346 312.993 151.652 314.032 152.062C317.755 153.565 320.432 156.661 321.185 160.335C321.472 161.81 321.435 163.336 321.889 164.773C322.34 166.211 323.457 167.621 325.06 167.87C326.145 168.041 327.232 167.655 328.252 167.275C328.813 167.068 329.375 166.859 329.936 166.65C329.351 165.299 328.766 163.948 328.182 162.598C329.12 163.872 330.211 165.046 331.434 166.097C333.445 165.351 335.458 164.605 337.473 163.86C332.516 163.877 333.362 159.451 332.253 155.011C331.644 152.571 326.453 150.919 325.436 148.597C323.846 144.958 319.35 143.192 315.393 144.654C313.688 145.284 312.283 146.453 311.43 147.95C310.413 148.323 310.383 149.78 311.105 150.558Z" fill="#2F2E41"/>
<path d="M290.053 202.685C287.738 203.24 285.864 204.801 285.035 206.865C284.742 207.448 284.75 208.122 285.056 208.699C285.296 209.112 285.83 209.298 286.307 209.135C286.785 208.898 287.167 208.524 287.394 208.07C287.728 207.487 288.015 206.882 288.252 206.26C288.641 205.322 289.471 203.757 288.286 203.023C287.29 202.407 285.971 202.646 284.85 202.604C283.639 202.558 282.292 202.132 281.862 200.977C281.444 199.854 282.425 198.798 283.482 198.371C284.774 197.878 286.246 198.007 287.413 198.715C288.549 199.439 289.36 200.518 289.696 201.751C289.747 201.951 289.614 202.151 289.397 202.198C289.191 202.244 288.982 202.135 288.919 201.948C288.622 200.804 287.839 199.817 286.744 199.209C285.657 198.632 284.306 198.68 283.271 199.333C282.728 199.644 282.476 200.249 282.654 200.814C282.927 201.316 283.44 201.67 284.04 201.77C285.318 202.054 286.655 201.686 287.929 202.061C289.115 202.341 289.871 203.409 289.669 204.519C289.536 205.186 289.321 205.836 289.029 206.457C288.78 207.096 288.49 207.721 288.158 208.328C287.653 209.207 286.741 210.158 285.537 209.901C284.166 209.607 283.84 208.134 284.134 207.051C284.929 204.551 287.097 202.621 289.839 201.971C290.055 201.923 290.273 202.046 290.324 202.245C290.373 202.435 290.255 202.627 290.053 202.685Z" fill="#CCCCCC"/>
<path d="M350.608 246.395H255.152C252.903 246.393 251.08 244.717 251.078 242.648V123.266C251.08 121.198 252.903 119.521 255.152 119.519H350.608C352.857 119.521 354.68 121.198 354.682 123.266V242.648C354.68 244.717 352.857 246.393 350.608 246.395ZM255.152 120.589C253.546 120.591 252.244 121.789 252.242 123.266V242.648C252.244 244.126 253.546 245.323 255.152 245.325H350.608C352.215 245.323 353.517 244.126 353.518 242.648V123.266C353.517 121.789 352.215 120.591 350.608 120.589H255.152Z" fill="#3F3D56"/>
<path d="M365.778 75.8761H94.9547C94.374 75.8647 93.9133 75.4224 93.9257 74.8883C93.9377 74.3702 94.3915 73.9529 94.9547 73.9418H365.778C366.359 73.9532 366.819 74.3955 366.807 74.9296C366.795 75.4477 366.341 75.865 365.778 75.8761Z" fill="#CACACA"/>
<path d="M418.389 190.72H387.541C383.362 190.72 379.974 187.604 379.974 183.76C379.974 179.916 383.362 176.801 387.541 176.801H418.389C422.568 176.801 425.956 179.916 425.956 183.76C425.956 187.604 422.568 190.72 418.389 190.72Z" fill="#6C63FF"/>
<path d="M197.199 219.847C196.544 219.875 195.988 219.409 195.958 218.806C195.942 218.485 196.081 218.173 196.338 217.954L196.42 217.657L196.387 217.585C195.701 216.094 193.83 215.396 192.208 216.028C191.437 216.328 190.826 216.895 190.505 217.605C189.543 219.736 188.319 221.871 188.017 224.124C187.884 225.12 187.94 226.13 188.183 227.108C185.923 222.575 184.75 217.648 184.742 212.661C184.742 211.409 184.817 210.159 184.969 208.915C185.094 207.896 185.267 206.884 185.489 205.879C186.7 200.425 189.3 195.314 193.076 190.965C194.904 190.048 196.382 188.637 197.311 186.924C197.647 186.308 197.885 185.651 198.017 184.972C197.811 184.997 197.601 185.012 197.395 185.025C197.331 185.028 197.263 185.031 197.199 185.034L197.175 185.035C196.526 185.062 195.976 184.6 195.947 184.003C195.934 183.738 196.027 183.478 196.209 183.272C196.298 183.172 196.387 183.071 196.476 182.97C196.611 182.815 196.75 182.662 196.885 182.507C196.9 182.492 196.915 182.477 196.929 182.46C197.084 182.283 197.24 182.109 197.395 181.932C197.111 181.527 196.73 181.188 196.28 180.94C194.722 180.101 192.573 180.682 191.447 181.979C190.38 183.348 190.032 185.083 190.498 186.713C190.883 188.091 191.521 189.398 192.383 190.579C192.299 190.679 192.211 190.775 192.127 190.875C190.582 192.701 189.236 194.663 188.108 196.731C188.382 194.414 188.054 192.07 187.152 189.892C186.237 187.863 184.523 186.154 183.013 184.399C181.898 183.083 179.833 182.847 178.402 183.873C177.715 184.365 177.269 185.088 177.161 185.883L177.152 185.96C177.376 186.077 177.596 186.2 177.811 186.331C178.55 186.785 178.749 187.705 178.255 188.386C178.004 188.731 177.607 188.963 177.161 189.027L177.128 189.031C177.208 189.775 177.349 190.512 177.551 191.235C178.73 195.319 181.708 198.767 185.766 200.747C185.898 200.809 186.027 200.871 186.158 200.93C185.025 203.885 184.314 206.963 184.043 210.087C183.89 211.93 183.899 213.781 184.07 215.623L184.06 215.558C183.627 213.51 182.439 211.662 180.697 210.327C178.109 208.371 174.453 207.651 171.662 206.08C170.803 205.573 169.659 205.802 169.107 206.592C168.871 206.93 168.773 207.335 168.83 207.734L168.842 207.803C169.258 207.958 169.663 208.138 170.055 208.34C170.279 208.457 170.499 208.58 170.714 208.711C171.453 209.165 171.652 210.085 171.158 210.766C170.907 211.111 170.51 211.343 170.064 211.407L170.031 211.411C170.008 211.414 169.987 211.418 169.964 211.421C170.675 212.982 171.673 214.42 172.914 215.67C176.013 218.728 180.346 220.477 184.891 220.503H184.894C185.505 222.943 186.39 225.318 187.534 227.59H196.963C196.996 227.494 197.027 227.394 197.057 227.298C196.185 227.348 195.308 227.3 194.448 227.155C195.148 226.365 195.847 225.57 196.547 224.78C196.563 224.765 196.577 224.75 196.591 224.734C196.946 224.329 197.304 223.929 197.659 223.524C197.678 222.286 197.523 221.049 197.199 219.847Z" fill="#F2F2F2"/>
<g opacity="0.38">
<path d="M179.296 207.248C177.839 206.152 177.625 204.176 178.817 202.836C178.945 202.694 179.085 202.561 179.238 202.441L171.532 183.913L177.69 185.113L184.228 202.935C185.362 204.329 185.052 206.304 183.536 207.347C182.268 208.219 180.515 208.178 179.296 207.248Z" fill="#FFB8B8"/>
<path d="M182.466 186.956L175.551 160.489L172.577 152.79C172.574 152.788 172.572 152.784 172.571 152.78C172.087 151.522 171.074 150.496 169.76 149.932C168.445 149.353 166.931 149.287 165.563 149.75C165.446 149.787 165.332 149.83 165.22 149.878C164.981 149.978 164.75 150.093 164.527 150.221C163.244 150.965 162.353 152.164 162.065 153.535L161.541 156.061L161.32 157.137L169.486 183.391V183.401L172.327 192.545L173.642 196.764V196.769L175.167 201.678L175.202 201.78L178.863 201.555H178.869L179.422 201.517L183.613 201.26L184.218 201.223L182.466 186.956Z" fill="#2F2E41"/>
<path d="M154.393 142.766L169.795 171.415L179.539 201.878C159.011 205.559 133.254 213.435 131.4 202.139C132.543 170.648 136.142 160.602 143.572 146.95L154.393 142.766Z" fill="#2F2E41"/>
<path d="M174.987 227.658H162.339L157.211 211.721L153.602 227.455C153.591 227.524 153.585 227.589 153.573 227.658H140.093C140.529 222.733 141.327 214.168 141.705 212.952C142.241 211.229 141.705 211.229 140.634 210.244C140.395 210.024 140.314 209.146 140.337 207.92C140.401 203.696 141.653 195.329 141.653 195.329L143.137 192.802L143.649 191.924L170.086 191.068L170.313 191.062L170.802 193.022L171.401 195.436L172.455 199.671L173.427 203.049L173.479 203.22V204.221C173.314 204.57 173.238 204.949 173.258 205.329C173.258 205.672 174.096 216.346 174.987 227.658Z" fill="#2F2E41"/>
<path d="M152.588 147.014L154.404 143.02L160.021 143.111L165.879 150.732L172.027 174.514C172.027 174.514 174.235 191.886 172.027 192.803C169.819 193.72 143.079 193.232 143.079 193.232C144.317 183.85 145.24 174.306 146.212 168.605C149.426 149.762 150.943 153.728 152.588 147.014Z" fill="#6C63FF"/>
<path d="M160.021 143.111C160.021 143.111 172.122 149.545 172.596 152.903C173.069 156.262 174.654 197.367 174.654 197.367L170.374 194.824L169.205 179.843C170.02 166.53 168.03 156.608 163.982 149.169L160.021 143.111Z" fill="#2F2E41"/>
<path d="M165.305 134.869C166.035 130.734 162.982 126.838 158.486 126.167C153.99 125.496 149.753 128.304 149.024 132.439C148.294 136.574 151.347 140.471 155.843 141.142C160.339 141.813 164.576 139.005 165.305 134.869Z" fill="#FFB8B8"/>
<path d="M147.003 133.204C147.371 134.741 148.035 136.205 148.964 137.526C149.211 137.977 149.579 138.362 150.034 138.644C150.509 138.924 151.135 138.852 151.52 138.473L151.721 138.322C151.327 138.099 150.976 137.819 150.681 137.492C150.384 137.159 150.28 136.715 150.402 136.3C150.55 135.88 151.032 135.643 151.494 135.763C151.977 135.937 152.271 136.58 152.776 136.481C153.185 136.399 153.27 135.903 153.27 135.514C153.255 133.477 154.325 130.583 155.154 130.672C155.99 130.714 156.829 130.611 157.624 130.368C158.42 130.124 159.261 130.026 160.098 130.077C160.158 130.084 160.217 130.094 160.28 130.105C160.415 129.718 160.599 129.347 160.83 129.001C160.804 129.419 160.827 129.838 160.897 130.251C161.563 130.504 162.252 130.704 162.955 130.849C163.72 130.949 165.403 133.053 165.481 132.838C165.616 132.451 165.8 132.081 166.031 131.734C166.005 132.152 166.028 132.572 166.098 132.985C166.102 133.002 166.102 133.016 166.106 133.033C166.477 132.578 166.704 132.025 166.577 132.449C167.822 129.859 167.339 128.003 165.381 125.82C165 125.35 164.495 124.978 163.914 124.737C163.322 124.497 162.638 124.56 162.108 124.901C160.482 123.529 158.175 123.077 156.082 123.718C154.043 124.371 152.471 124.754 152.159 126.722C150.422 126.547 148.731 127.304 147.809 128.669C146.93 130.034 146.642 131.653 147.003 133.204Z" fill="#2F2E41"/>
<path d="M123.892 205.377C123.192 203.769 124.041 201.944 125.788 201.3C125.975 201.232 126.167 201.178 126.364 201.141L129.337 181.493L134.101 185.277L130.476 203.788C130.737 205.512 129.429 207.105 127.554 207.345C125.986 207.546 124.472 206.732 123.892 205.377Z" fill="#FFB8B8"/>
<path d="M150.139 152.93L149.912 151.024C149.698 149.264 148.496 147.736 146.746 146.998C146.081 146.714 145.36 146.559 144.627 146.543H144.621C142.416 146.496 140.396 147.669 139.493 149.519L135.861 156.988L126.694 182.871L123.731 196.951L126.933 197.385L131.572 198.011L131.607 198.016L132.672 198.161L147.555 161.522L147.56 161.511L150.343 154.664L150.139 152.93Z" fill="#2F2E41"/>
</g>
<path d="M205.678 228.194H110.222C107.973 228.191 106.15 226.515 106.148 224.446V105.065C106.15 102.996 107.973 101.319 110.222 101.317H205.678C207.927 101.319 209.75 102.996 209.752 105.065V224.446C209.75 226.515 207.927 228.191 205.678 228.194ZM110.222 102.388C108.616 102.39 107.314 103.587 107.312 105.065V224.446C107.314 225.924 108.616 227.121 110.222 227.123H205.678C207.285 227.121 208.586 225.924 208.588 224.446V105.065C208.586 103.587 207.285 102.39 205.678 102.388H110.222Z" fill="#E6E6E6"/>
<path d="M51.6987 190.72H20.8501C16.6711 190.72 13.2834 187.604 13.2834 183.76C13.2834 179.916 16.6711 176.801 20.8501 176.801H51.6987C55.8776 176.801 59.2653 179.916 59.2653 183.76C59.2653 187.604 55.8776 190.72 51.6987 190.72Z" fill="#E6E6E6"/>
<path d="M66.8319 218.022H35.9834C31.8044 218.022 28.4167 214.906 28.4167 211.063C28.4167 207.219 31.8044 204.103 35.9834 204.103H66.8319C71.0109 204.103 74.3986 207.219 74.3986 211.063C74.3986 214.906 71.0109 218.022 66.8319 218.022Z" fill="#E6E6E6"/>
<path d="M83.149 212.916L83.1322 213.987L142.745 214.779L142.762 213.709L83.149 212.916Z" fill="#E6E6E6"/>
<path d="M145.255 216.694C144.14 216.695 143.123 216.111 142.634 215.191C141.93 213.862 142.53 212.26 143.974 211.612C145.419 210.964 147.161 211.516 147.866 212.845C148.57 214.173 147.97 215.776 146.525 216.423C146.129 216.601 145.695 216.694 145.255 216.694ZM145.249 212.411C144.284 212.412 143.503 213.132 143.504 214.019C143.504 214.262 143.565 214.502 143.68 214.721C144.104 215.517 145.149 215.847 146.015 215.457C146.88 215.068 147.239 214.107 146.815 213.31C146.523 212.76 145.915 212.411 145.249 212.411Z" fill="#E6E6E6"/>
<path d="M70.3439 184.543L70.3271 185.614L129.94 186.406L129.957 185.335L70.3439 184.543Z" fill="#E6E6E6"/>
<path d="M132.45 188.321C131.335 188.322 130.318 187.738 129.829 186.818C129.124 185.489 129.724 183.885 131.168 183.237C132.613 182.588 134.357 183.14 135.062 184.469C135.767 185.798 135.167 187.401 133.722 188.05C133.326 188.228 132.891 188.32 132.45 188.321ZM130.875 186.348C131.298 187.145 132.343 187.476 133.21 187.087C134.076 186.698 134.436 185.737 134.013 184.94C133.59 184.143 132.545 183.812 131.679 184.201C131.263 184.388 130.945 184.719 130.794 185.121C130.643 185.524 130.672 185.965 130.875 186.348Z" fill="#E6E6E6"/>
<path d="M74.9806 163.952H44.132C39.9531 163.952 36.5654 160.836 36.5654 156.993C36.5654 153.149 39.9531 150.033 44.132 150.033H74.9806C79.1595 150.033 82.5472 153.149 82.5472 156.993C82.5472 160.836 79.1595 163.952 74.9806 163.952Z" fill="#E6E6E6"/>
<path d="M93.6259 157.776L93.609 158.847L153.222 159.639L153.239 158.568L93.6259 157.776Z" fill="#E6E6E6"/>
<path d="M155.732 161.554C154.617 161.555 153.6 160.971 153.111 160.05C152.406 158.721 153.005 157.118 154.45 156.47C155.895 155.821 157.638 156.373 158.344 157.702C159.049 159.031 158.449 160.634 157.004 161.282C156.608 161.46 156.173 161.553 155.732 161.554ZM154.157 159.581C154.58 160.378 155.625 160.709 156.492 160.32C157.358 159.931 157.718 158.97 157.295 158.173C156.872 157.376 155.827 157.045 154.961 157.434C154.545 157.621 154.227 157.952 154.076 158.354C153.925 158.757 153.954 159.198 154.157 159.581Z" fill="#E6E6E6"/>
<path d="M312.986 180.894L312.969 181.965L372.581 182.757L372.598 181.686L312.986 180.894Z" fill="#3F3D56"/>
<path d="M310.483 184.334C308.873 184.337 307.565 183.14 307.561 181.659C307.557 180.178 308.86 178.974 310.47 178.971C312.08 178.968 313.388 180.165 313.392 181.646C313.394 182.673 312.759 183.611 311.756 184.062C311.36 184.24 310.924 184.333 310.483 184.334ZM310.479 180.049C309.514 180.049 308.732 180.768 308.732 181.656C308.732 182.544 309.514 183.263 310.479 183.263C311.444 183.263 312.227 182.544 312.227 181.656C312.227 181.412 312.166 181.171 312.05 180.952C311.757 180.4 311.147 180.049 310.479 180.049Z" fill="#3F3D56"/>
<path d="M418.389 245.86H387.541C383.362 245.86 379.974 242.744 379.974 238.901C379.974 235.057 383.362 231.941 387.541 231.941H418.389C422.568 231.941 425.956 235.057 425.956 238.901C425.956 242.744 422.568 245.86 418.389 245.86Z" fill="#6C63FF"/>
<path d="M312.986 236.035L312.969 237.105L372.582 237.897L372.598 236.827L312.986 236.035Z" fill="#3F3D56"/>
<path d="M310.483 239.474C308.875 239.475 307.571 238.278 307.569 236.799C307.568 235.321 308.87 234.121 310.477 234.119C311.591 234.118 312.608 234.702 313.096 235.623C313.8 236.953 313.198 238.557 311.752 239.204C311.356 239.381 310.923 239.473 310.483 239.474ZM310.479 235.189C309.514 235.189 308.732 235.909 308.731 236.796C308.731 237.684 309.514 238.404 310.479 238.404C311.444 238.404 312.226 237.684 312.227 236.797C312.227 236.553 312.166 236.312 312.05 236.093C311.757 235.54 311.147 235.19 310.479 235.189Z" fill="#3F3D56"/>
<path d="M233.863 245.795C235.337 244.706 235.573 242.724 234.389 241.368C234.275 241.236 234.149 241.114 234.013 241.001L239.556 226.155L235.469 223.735L229.025 241.412C227.867 242.784 228.138 244.76 229.631 245.824C230.879 246.715 232.629 246.703 233.863 245.795Z" fill="#FFB6B6"/>
<path d="M238.594 204.832C237.614 208.642 236.153 211.97 236.351 213.568C236.547 215.161 234.429 216.693 235.102 217.953C235.774 219.215 233.706 219.351 234.265 221.383C234.827 223.42 235.191 223.855 234.717 224.191C234.24 224.525 231.72 232.299 231.72 232.299L233.199 232.797L237.512 234.244L247.648 218.911L247.617 200.09L245.1 200.015C244.496 200.224 243.827 200.474 243.159 200.775C241.121 201.68 239.058 203.018 238.594 204.832Z" fill="#6C63FF"/>
<path d="M275.918 324.256H281.189L283.696 305.557H275.917L275.918 324.256Z" fill="#FFB6B6"/>
<path d="M282.943 324.693V321.406L281.557 321.484L275.916 321.791L274.611 321.865L273.613 332.872L273.559 333.462H277.302L277.422 332.876L277.966 330.212L279.369 332.876L279.677 333.462H289.599C290.828 333.455 291.821 332.539 291.827 331.409C292.246 329.61 283.994 325.721 282.943 324.693Z" fill="#2F2E41"/>
<path d="M214.167 318.979L218.751 321.371L230.965 306.246L224.199 302.715L214.167 318.979Z" fill="#FFB6B6"/>
<path d="M220.045 322.545L221.804 319.689L220.566 319.127L215.491 316.837L214.315 316.304L208.536 324.086L207.177 325.914L208.714 326.717L210.43 327.614L212.755 325.09L212.497 328.692L220.602 332.925H220.606L221.127 333.196C222.199 333.753 223.559 333.406 224.166 332.421C225.494 331.044 220.405 323.922 220.045 322.545Z" fill="#2F2E41"/>
<path d="M249.76 232.466C242.697 236.771 235.705 278.13 237.54 277.455L220.892 305.991L229.401 311.282L260.169 266.002L270.396 286.033L274.62 316.779L285.214 316.083C282.461 281.446 275.588 244.914 269.892 230.783L249.76 232.466Z" fill="#2F2E41"/>
<path d="M244.397 235.537L244.321 235.803C251.788 239.624 272.226 235.198 272.226 235.198L268.932 225.435L273.379 203.747C273.355 200.246 270.25 197.426 266.443 197.448C266.287 197.449 266.131 197.454 265.975 197.465L260.609 193.809L252.97 194.051L247.86 199.243L244.807 200.246L242.436 201.024C241.956 201.421 241.433 201.879 240.931 202.384L244.683 222.92L246.279 229.06L244.397 235.537Z" fill="#6C63FF"/>
<path d="M256.797 192.995C262.21 192.995 266.598 188.958 266.598 183.98C266.598 179.001 262.21 174.965 256.797 174.965C251.383 174.965 246.995 179.001 246.995 183.98C246.995 188.958 251.383 192.995 256.797 192.995Z" fill="#FFB6B6"/>
<path d="M243.909 180.839C243.938 180.849 243.964 180.859 243.993 180.87C244.049 180.892 244.107 180.912 244.165 180.927C244.539 181.054 244.929 181.136 245.325 181.172C245.494 181.189 245.664 181.197 245.834 181.197C246.052 181.198 246.269 181.185 246.485 181.158C246.725 181.131 246.963 181.087 247.196 181.025C247.306 180.998 247.415 180.966 247.522 180.928C248.997 180.446 250.141 179.356 250.612 177.983V177.98C250.637 177.913 250.657 177.846 250.675 177.778C250.783 177.399 250.839 177.009 250.839 176.617V176.61C250.842 175.654 250.518 174.722 249.913 173.945C249.548 173.469 249.127 173.39 249.363 172.846C250.117 171.112 247.032 169.694 245.212 170.456C245.146 170.451 245.08 170.448 245.014 170.449C243.788 170.446 243.333 172.112 242.602 173.049L242.623 173.056C243.114 173.213 243.372 173.707 243.2 174.158C243.104 174.411 242.887 174.608 242.611 174.693C242.124 174.839 241.633 174.967 241.136 175.079C239.497 176.859 241.376 182.066 243.909 180.839Z" fill="#2F2E41"/>
<path d="M244.811 185.612C245.277 187.54 246.395 189.283 248.004 190.591C249.662 191.824 257.462 194.744 258.12 192.244C257.68 193.991 257.945 194.658 258.653 195.282C258.775 195.131 258.903 194.987 259.035 194.846C259.522 194.33 260.106 193.899 260.759 193.574C260.776 194.628 260.693 195.682 260.512 196.724C260.804 196.972 261.082 197.233 261.345 197.507C262.606 194.049 265.371 189.908 263.369 186.759C262.575 185.509 263.237 185.338 263.941 185.195C265.169 184.944 265.847 180.308 266.139 179.181C266.502 177.767 266.645 176.142 265.693 174.981C264.741 173.821 262.332 173.772 261.846 175.154L260.831 173.886C259.521 171.234 256.042 171.764 252.897 172.107C249.708 172.551 246.962 174.414 245.559 177.086C244.209 179.754 243.943 182.779 244.811 185.612Z" fill="#2F2E41"/>
<path d="M249.769 173.495C249.906 176.765 247.907 179.794 244.691 181.192C244.052 181.458 243.495 180.587 244.139 180.318C247.014 179.098 248.804 176.402 248.671 173.493C248.635 172.843 249.733 172.847 249.769 173.495Z" fill="#6C63FF"/>
<path d="M294.038 178.482C292.215 178.948 291.148 180.683 291.654 182.359C291.703 182.522 291.766 182.68 291.843 182.833L280.379 194.462L283.097 198.17L296.602 184.266C298.255 183.425 298.853 181.511 297.939 179.992C297.174 178.72 295.561 178.096 294.038 178.482Z" fill="#FFB6B6"/>
<path d="M261.451 216.21C261.451 216.21 269.582 217.553 272.116 214.405C274.65 211.257 277.42 208.732 277.924 207.193C278.428 205.654 281.03 205.018 280.953 203.615C280.876 202.211 282.836 202.838 283.193 200.765C283.55 198.692 283.403 198.158 283.984 198.023C284.565 197.888 290.213 191.661 290.213 191.661L285.728 187.771L269.837 198.181L261.451 216.21Z" fill="#6C63FF"/>
<path d="M200.3 329.536C193.92 328.838 188.224 325.528 184.798 320.528C182.598 317.247 181.463 313.35 180.365 309.582C180.046 308.485 179.716 307.351 179.366 306.258C178.557 303.814 179.445 301.163 181.611 299.563C183.704 297.95 186.654 297.67 189.061 298.856L189.318 298.981L189.768 308.285C190.435 307.039 191.898 304.223 193.058 301.411L193.155 301.176L193.377 301.324C195.708 302.864 197.819 304.668 199.66 306.693C206.239 314.05 208.967 323.696 207.119 333.068L207.063 333.344L200.3 329.536Z" fill="#F2F2F2"/>
<path d="M159.051 333.25C159.05 333.601 159.358 333.886 159.739 333.887H328.706C329.089 333.887 329.399 333.602 329.399 333.25C329.399 332.898 329.089 332.613 328.706 332.613H159.743C159.362 332.612 159.052 332.895 159.051 333.246V333.25Z" fill="#CCCCCC"/>
<path d="M108.498 66.8773C111.217 66.8773 113.42 64.8053 113.42 62.2492C113.42 59.6932 111.217 57.6212 108.498 57.6212C105.78 57.6212 103.576 59.6932 103.576 62.2492C103.576 64.8053 105.78 66.8773 108.498 66.8773Z" fill="#3F3D56"/>
<path d="M125.502 66.8773C128.221 66.8773 130.424 64.8053 130.424 62.2492C130.424 59.6932 128.221 57.6212 125.502 57.6212C122.784 57.6212 120.58 59.6932 120.58 62.2492C120.58 64.8053 122.784 66.8773 125.502 66.8773Z" fill="#3F3D56"/>
<path d="M142.506 66.8773C145.224 66.8773 147.428 64.8053 147.428 62.2492C147.428 59.6932 145.224 57.6212 142.506 57.6212C139.788 57.6212 137.584 59.6932 137.584 62.2492C137.584 64.8053 139.788 66.8773 142.506 66.8773Z" fill="#3F3D56"/>
<path d="M161.895 65.9071C161.744 65.9071 161.593 65.8533 161.479 65.7461L158.158 62.6235C157.936 62.4154 157.936 62.0829 158.158 61.8748L161.479 58.7524C161.704 58.5412 162.073 58.5378 162.302 58.744C162.532 58.9508 162.536 59.2898 162.311 59.501L159.388 62.2491L162.311 64.9975C162.536 65.2087 162.532 65.5477 162.302 65.7545C162.189 65.8564 162.042 65.9071 161.895 65.9071Z" fill="#3F3D56"/>
<path d="M167.476 65.9071C167.329 65.9071 167.182 65.8564 167.069 65.7545C166.839 65.5477 166.835 65.2089 167.06 64.9975L169.982 62.2491L167.06 59.501C166.835 59.2898 166.839 58.9508 167.069 58.744C167.298 58.537 167.667 58.5409 167.892 58.7524L171.213 61.8748C171.434 62.0829 171.434 62.4154 171.213 62.6235L167.892 65.7461C167.778 65.8533 167.627 65.9071 167.476 65.9071Z" fill="#3F3D56"/>
<path d="M341.223 58.157H335.047C334.343 58.157 333.773 58.6816 333.773 59.3294V65.0147C333.773 65.6625 334.343 66.1871 335.047 66.1871H341.223C341.927 66.1871 342.504 65.6625 342.504 65.0147V59.3294C342.504 58.6816 341.927 58.157 341.223 58.157Z" fill="#3F3D56"/>
<path d="M326.09 58.157H319.914C319.21 58.157 318.64 58.6816 318.64 59.3294V65.0147C318.64 65.6625 319.21 66.1871 319.914 66.1871H326.09C326.794 66.1871 327.37 65.6625 327.37 65.0147V59.3294C327.37 58.6816 326.794 58.157 326.09 58.157Z" fill="#3F3D56"/>
<path d="M355.483 58.4247H349.308C348.603 58.4247 348.033 58.9493 348.033 59.5971V65.2824C348.033 65.9302 348.603 66.4548 349.308 66.4548H355.483C356.187 66.4548 356.764 65.9302 356.764 65.2824V59.5971C356.764 58.9493 356.187 58.4247 355.483 58.4247Z" fill="#3F3D56"/>
<path d="M262.401 60.5874H213.037C212.176 60.5874 211.483 61.2299 211.483 62.0168C211.483 62.8038 212.176 63.4462 213.037 63.4462H262.401C263.257 63.4462 263.955 62.8038 263.955 62.0168C263.955 61.2299 263.257 60.5874 262.401 60.5874Z" fill="#3F3D56"/>
</g>
<defs>
<clipPath id="clip0_3_76">
<rect width="412.673" height="276.266" fill="white" transform="translate(13.2834 57.6212)"/>
</clipPath>
</defs>
</svg>
