<svg width="1278" height="676" viewBox="0 0 1278 676" fill="none" xmlns="http://www.w3.org/2000/svg">
<g clip-path="url(#clip0_2_30)">
<rect width="1278" height="676" fill="#F5F5F5"/>
<path d="M880.622 620.906C882.619 619.892 900.431 613.639 901.07 614.568C901.469 615.16 897.955 634.679 897.396 635.271C897.236 635.524 884.616 624.877 880.622 620.906ZM979.507 193.59C979.507 193.505 975.593 185.646 973.916 181.59C973.836 181.337 973.676 180.661 973.596 180.239C973.516 179.901 973.357 179.647 973.117 179.478C972.878 179.309 972.638 179.394 972.478 179.563L962.014 189.956C961.855 190.125 961.775 190.379 961.695 190.632C961.695 190.886 961.695 191.224 961.855 191.477C961.935 191.562 962.973 193.589 963.532 194.519C965.449 197.645 968.724 204.743 968.724 204.828C968.884 205.081 969.043 205.251 969.283 205.335C969.523 205.335 969.682 205.25 969.842 205.081C969.842 205.081 971.28 202.969 971.999 202.04C973.197 200.688 974.395 199.335 975.673 198.068C976.632 197.054 976.951 196.885 977.35 196.716C977.75 196.463 978.229 196.293 979.347 195.11C979.667 194.688 979.747 194.012 979.507 193.59ZM26.3587 650.903C26.3587 650.312 25.9594 649.889 25.4002 649.889C25.3204 649.889 25.1606 649.89 25.0807 649.974C23.8027 650.143 13.6586 650.059 7.34849 649.974C7.10887 649.974 6.86924 650.058 6.62962 650.312C6.46987 650.481 6.31012 650.735 6.31012 651.072C6.31012 651.242 6.31012 655.213 6.38999 656.058L6.70949 667.55C6.70949 667.804 6.86924 668.057 7.02899 668.311C7.18874 668.48 7.42837 668.564 7.66799 668.564H7.74787C13.5787 667.973 19.4895 667.803 25.3204 668.057C25.56 668.057 25.8795 667.972 26.0392 667.803C26.199 667.635 26.3587 667.297 26.3587 667.043C26.2789 661.889 26.2789 655.889 26.3587 650.903Z" fill="#1E1E1E"/>
<path d="M136.666 323.973C137.705 321.861 148.088 305.383 149.127 305.721C149.766 305.975 158.312 323.635 158.312 324.396C158.232 324.649 142.098 324.48 136.666 323.973ZM476.375 601.471C476.295 601.387 471.023 594.542 468.627 590.909C468.467 590.655 468.227 590.064 468.068 589.641C467.908 589.303 467.748 589.05 467.508 588.965C467.269 588.881 467.029 588.965 466.869 589.219L458.483 601.64C458.323 601.809 458.323 602.063 458.323 602.401C458.323 602.654 458.483 602.992 458.642 603.161C458.722 603.246 460.08 605.02 460.879 605.781C463.355 608.4 467.908 614.653 467.988 614.738C468.147 614.991 468.387 615.076 468.627 615.076C468.866 615.076 469.026 614.907 469.106 614.653C469.106 614.653 470.064 612.287 470.703 611.189C471.582 609.583 472.54 608.062 473.499 606.541C474.218 605.358 474.537 605.104 474.857 604.851C475.256 604.513 475.656 604.26 476.534 602.823C476.774 602.57 476.694 601.893 476.375 601.471ZM581.091 152.016C581.57 152.185 582.129 151.847 582.209 151.34C582.209 151.255 582.209 151.171 582.209 151.002C582.369 149.819 584.445 140.355 585.803 134.524C585.883 134.271 585.803 134.017 585.643 133.848C585.484 133.595 585.244 133.51 585.005 133.426C584.845 133.426 581.25 132.496 580.452 132.327L569.748 130.046C569.509 129.961 569.189 130.046 569.03 130.215C568.87 130.384 568.71 130.553 568.63 130.722V130.806C567.991 136.299 566.873 141.876 565.515 147.199C565.435 147.453 565.515 147.706 565.675 147.96C565.834 148.213 566.074 148.298 566.314 148.382C570.947 149.481 576.458 150.833 581.091 152.016Z" fill="#FFCC03"/>
<path d="M381.549 359.617C380.351 359.617 379.313 358.941 378.754 357.673C378.115 356.068 378.754 354.124 380.271 353.448C383.227 352.096 385.703 349.477 386.981 346.266C388.259 343.055 388.339 339.421 387.141 336.21C386.901 335.45 386.502 334.689 386.182 333.844C385.543 332.408 384.744 330.718 384.345 328.859C383.626 325.394 384.185 321.592 385.942 318.043C387.3 315.423 389.217 312.888 392.013 310.353C393.291 309.17 395.208 309.339 396.246 310.691C397.365 312.043 397.205 314.071 395.927 315.17C393.69 317.282 392.173 319.141 391.214 321.085C390.096 323.282 389.697 325.563 390.176 327.507C390.415 328.69 390.975 329.873 391.534 331.14C391.933 332.07 392.332 332.999 392.732 333.929C394.409 338.661 394.329 344.069 392.492 348.801C390.655 353.448 387.061 357.335 382.668 359.363C382.348 359.532 381.949 359.617 381.549 359.617ZM414.138 316.268C415.336 316.099 416.535 316.691 417.174 317.874C418.052 319.395 417.493 321.423 416.055 322.352C413.1 324.127 410.943 327.084 409.985 330.38C409.026 333.76 409.346 337.478 410.863 340.604C411.183 341.365 411.662 342.041 412.141 342.886C412.94 344.322 413.899 345.843 414.538 347.702C415.656 351.082 415.496 355.054 414.058 358.856C412.94 361.729 411.263 364.433 408.627 367.391C407.429 368.743 405.512 368.827 404.234 367.56C402.956 366.377 402.876 364.264 404.074 362.997C406.151 360.631 407.509 358.518 408.307 356.49C409.186 354.124 409.346 351.758 408.707 349.815C408.307 348.716 407.668 347.533 406.95 346.35C406.47 345.505 405.911 344.576 405.432 343.646C403.195 339.083 402.716 333.591 404.074 328.605C405.512 323.62 408.707 319.31 413.02 316.775C413.34 316.437 413.739 316.268 414.138 316.268ZM31.4572 459.496C36.0101 465.242 38.646 472.762 38.9655 478.424C39.3648 484.592 37.0484 492.282 30.8182 495.662C28.4219 496.929 25.4666 497.521 21.8722 497.521C15.5621 497.436 11.5683 495.07 9.57143 490.423C7.89406 486.451 7.73431 480.79 11.0092 476.987C13.5652 474.03 17.2394 473.523 19.9552 475.635C20.9137 476.396 21.1533 477.917 20.4344 478.931C19.7156 479.945 18.2778 480.198 17.3193 479.438C15.8816 478.339 14.4438 479.945 14.2841 480.114C12.3671 482.311 12.6067 486.029 13.6451 488.479C14.8432 491.352 17.3992 492.704 21.9521 492.789C24.8276 492.789 27.0641 492.366 28.8213 491.437C32.5754 489.409 34.9717 484.17 34.5723 478.762C34.1729 472.593 30.3389 463.383 24.1886 458.566C20.8338 455.947 17.3992 455.102 13.8847 455.947C11.4086 456.538 8.93244 457.975 6.13682 460.172C0.865067 464.481 -3.20857 470.143 -5.20544 476.227C-7.36207 482.733 -6.88281 489.578 -3.68781 496.422C-3.12868 497.605 -3.60794 499.042 -4.72619 499.549C-5.84444 500.14 -7.20231 499.633 -7.68156 498.45C-11.3558 490.507 -11.9948 482.226 -9.43881 474.621C-7.12243 467.692 -2.56956 461.186 3.42106 456.369C6.69594 453.75 9.81106 452.06 12.8463 451.299C17.6388 450.116 22.4313 451.299 26.8244 454.679C28.5018 456.116 30.0993 457.721 31.4572 459.496Z" fill="white" fill-opacity="0.48"/>
<path d="M632.437 96.2304C635.569 96.2304 638.108 93.5443 638.108 90.2309C638.108 86.9174 635.569 84.2314 632.437 84.2314C629.305 84.2314 626.766 86.9174 626.766 90.2309C626.766 93.5443 629.305 96.2304 632.437 96.2304Z" fill="white" fill-opacity="0.48"/>
<path d="M640.904 77.8094C644.036 77.8094 646.575 75.1234 646.575 71.8099C646.575 68.4965 644.036 65.8104 640.904 65.8104C637.772 65.8104 635.232 68.4965 635.232 71.8099C635.232 75.1234 637.772 77.8094 640.904 77.8094Z" fill="white" fill-opacity="0.48"/>
<path d="M651.287 92.0054C654.419 92.0054 656.958 89.3193 656.958 86.0059C656.958 82.6924 654.419 80.0064 651.287 80.0064C648.155 80.0064 645.616 82.6924 645.616 86.0059C645.616 89.3193 648.155 92.0054 651.287 92.0054Z" fill="white" fill-opacity="0.48"/>
<path d="M1027.82 211.319C1023.98 206.756 1020.07 202.193 1016 197.63C1020.47 192.898 1024.86 187.913 1028.46 182.251C1029.42 180.815 1029.02 178.787 1027.66 177.857C1026.3 176.843 1024.38 177.266 1023.5 178.702C1020.15 183.941 1016.24 188.504 1011.92 192.983C1008.09 188.758 1004.17 184.533 1000.18 180.392C998.983 179.125 997.066 179.125 995.948 180.392C994.75 181.66 994.75 183.688 995.948 184.871C999.862 188.927 1003.7 193.152 1007.53 197.377C1006.65 198.306 1005.69 199.236 1004.73 200.081C1001.46 203.292 998.025 206.672 994.83 210.221C993.711 211.488 993.711 213.432 994.83 214.699C996.028 215.882 997.945 215.882 999.063 214.615C1002.18 211.235 1005.53 207.939 1008.73 204.728C1009.69 203.799 1010.57 202.869 1011.52 201.94C1015.44 206.418 1019.35 210.897 1023.19 215.375C1023.27 215.46 1023.27 215.46 1023.34 215.544C1024.46 216.727 1026.3 216.812 1027.5 215.713C1028.86 214.699 1028.94 212.671 1027.82 211.319ZM84.4143 170.252L84.0948 168.055C82.8967 158.676 82.3376 148.451 82.2577 136.79C82.2577 132.143 82.2577 127.073 82.4175 121.158C82.4175 120.566 82.4175 119.89 82.4175 119.214C82.4175 114.989 82.4174 109.75 85.5326 107.807C87.2898 106.708 89.6062 106.962 92.3219 108.567C96.8748 111.187 102.865 115.919 106.3 121.158C110.693 127.749 112.131 135.438 110.294 142.874C107.738 153.268 98.3126 169.069 86.3313 169.999L84.4143 170.252ZM88.0087 111.609C87.849 111.609 87.7691 111.609 87.6892 111.694C87.6093 111.778 87.1301 112.116 86.8106 113.975C86.571 115.581 86.5709 117.524 86.5709 119.299C86.5709 119.975 86.5709 120.735 86.5709 121.327C86.4112 127.157 86.4112 132.143 86.4112 136.79C86.4911 147.353 86.9703 156.648 88.0087 165.267C96.795 162.985 104.303 149.972 106.38 141.776C107.898 135.692 106.699 129.27 103.025 123.777C99.9101 119.13 94.3188 114.82 90.3251 112.539C89.2068 111.863 88.4081 111.609 88.0087 111.609ZM235.138 11.5614C235.059 11.5614 234.979 11.5614 234.819 11.4769C232.902 10.8854 231.624 10.7164 229.467 10.8854C228.908 10.8854 228.429 10.4629 228.349 9.8714C228.349 9.2799 228.748 8.7729 229.308 8.6884C231.784 8.5194 233.221 8.6884 235.378 9.3644C235.937 9.5334 236.257 10.1249 236.097 10.7164C235.937 11.2234 235.538 11.5614 235.138 11.5614ZM226.991 19.7579C226.592 19.7579 226.192 19.5044 226.033 19.0819C225.394 17.3074 225.074 15.4484 224.994 13.5049C224.994 12.9134 225.394 12.4064 225.953 12.4064C226.512 12.4064 226.991 12.8289 226.991 13.4204C227.071 15.1104 227.391 16.7159 227.87 18.3214C228.03 18.9129 227.79 19.5044 227.231 19.6734C227.231 19.7579 227.071 19.7579 226.991 19.7579ZM217.406 14.6034C217.087 14.6034 216.767 14.4344 216.607 14.1809C216.288 13.6739 216.368 12.9979 216.767 12.6599C218.205 11.4769 219.723 10.4629 221.4 9.6179C221.879 9.3644 222.518 9.6179 222.758 10.1249C222.997 10.6319 222.758 11.3079 222.279 11.5614C220.761 12.3219 219.323 13.2514 218.045 14.3499C217.885 14.5189 217.646 14.6034 217.406 14.6034ZM222.518 6.9139C222.119 6.9139 221.799 6.6604 221.56 6.3224C221.16 5.4774 220.601 4.7169 219.643 3.4494C219.403 3.1114 219.084 2.6889 218.764 2.2664C218.445 1.7594 218.524 1.0834 218.924 0.745402C219.403 0.407402 220.042 0.491903 220.362 0.914403C220.681 1.3369 221.001 1.7594 221.24 2.0974C222.279 3.4494 222.918 4.2944 223.397 5.3929C223.636 5.8999 223.397 6.5759 222.918 6.8294C222.838 6.9139 222.678 6.9139 222.518 6.9139ZM227.47 6.6604C227.231 6.6604 227.071 6.5759 226.831 6.4914C226.352 6.1534 226.272 5.4774 226.592 4.9704C227.55 3.5339 228.429 2.0974 229.228 0.576402C229.467 0.0694016 230.106 -0.184098 230.586 0.153902C231.065 0.407402 231.304 1.0834 230.985 1.5904C230.186 3.1959 229.228 4.8014 228.189 6.3224C228.03 6.4914 227.79 6.6604 227.47 6.6604ZM644.897 283.651C644.817 283.651 644.737 283.651 644.578 283.567C642.661 282.975 641.383 282.806 639.226 282.975C638.667 282.975 638.188 282.553 638.108 281.961C638.108 281.37 638.507 280.863 639.066 280.778C641.542 280.609 642.98 280.778 645.137 281.454C645.696 281.623 646.015 282.215 645.856 282.806C645.696 283.313 645.297 283.651 644.897 283.651ZM636.75 291.848C636.351 291.848 635.951 291.594 635.791 291.172C635.152 289.397 634.833 287.538 634.753 285.595C634.753 285.003 635.152 284.496 635.712 284.496C636.271 284.496 636.75 284.919 636.75 285.51C636.83 287.2 637.149 288.806 637.629 290.411C637.788 291.003 637.549 291.594 636.99 291.763C636.99 291.848 636.83 291.848 636.75 291.848ZM627.165 286.693C626.845 286.693 626.526 286.524 626.366 286.271C626.047 285.764 626.127 285.088 626.526 284.75C627.964 283.567 629.481 282.553 631.159 281.708C631.638 281.454 632.277 281.708 632.517 282.215C632.756 282.722 632.517 283.398 632.037 283.651C630.52 284.412 629.082 285.341 627.804 286.44C627.644 286.609 627.405 286.693 627.165 286.693ZM632.277 279.004C631.878 279.004 631.558 278.75 631.318 278.412C630.919 277.567 630.36 276.807 629.401 275.539C629.162 275.201 628.842 274.779 628.523 274.356C628.203 273.849 628.283 273.173 628.683 272.835C629.162 272.497 629.801 272.582 630.12 273.004C630.44 273.427 630.759 273.849 630.999 274.187C632.037 275.539 632.676 276.384 633.156 277.483C633.395 277.99 633.156 278.666 632.676 278.919C632.596 279.004 632.437 279.004 632.277 279.004ZM637.229 278.75C636.99 278.75 636.83 278.666 636.59 278.581C636.111 278.243 636.031 277.567 636.351 277.06C637.309 275.624 638.188 274.187 638.986 272.666C639.226 272.159 639.865 271.906 640.344 272.244C640.824 272.497 641.063 273.173 640.744 273.68C639.945 275.286 638.986 276.891 637.948 278.412C637.788 278.581 637.549 278.75 637.229 278.75ZM884.842 444.708C883.723 444.708 882.525 444.539 881.247 444.117C874.538 441.835 867.988 433.385 866.311 427.217C865.991 426.034 865.752 424.766 865.592 423.499C859.122 426.287 853.211 432.456 853.291 441.244C853.291 442.511 852.333 443.525 851.134 443.61C849.936 443.61 848.978 442.596 848.978 441.328C848.898 435.667 850.895 430.428 854.569 426.118C857.445 422.738 861.279 420.119 865.512 418.682C865.911 413.19 867.988 407.782 871.423 403.979C877.014 397.726 885.96 396.459 893.229 395.445L893.788 395.36C894.986 395.191 896.104 396.121 896.264 397.304C896.424 398.571 895.545 399.754 894.427 399.923L893.868 400.008C886.998 401.022 879.171 402.12 874.698 407.106C872.301 409.81 870.704 413.612 870.145 417.584C876.455 416.739 884.283 418.682 889.554 422.4C892.989 424.851 895.226 428.991 895.305 433.132C895.465 436.765 893.947 440.145 891.152 442.511C889.235 443.863 887.158 444.708 884.842 444.708ZM869.905 422.147C869.985 423.414 870.225 424.682 870.544 425.865C871.902 430.766 877.493 437.864 882.605 439.638C884.842 440.399 886.679 440.061 888.356 438.709C890.513 436.934 890.912 434.653 890.832 433.132C890.752 430.428 889.235 427.724 886.998 426.118C882.445 422.823 875.257 421.217 869.905 422.147Z" fill="white" fill-opacity="0.48"/>
</g>
<defs>
<clipPath id="clip0_2_30">
<rect width="1278" height="676" fill="white"/>
</clipPath>
</defs>
</svg>
